HIERARCHY
ROOT root
{
	OFFSET	0	13.1	24.9
	CHANNELS 6  Xposition Yposition Zposition Xrotation Yrotation Zrotation
	JOINT spine_1
	{
		OFFSET	0	9.99999	0
		CHANNELS 3  Xrotation Yrotation Zrotation
		JOINT spine_2
		{
			OFFSET	0	112	-10
			CHANNELS 3  Xrotation Yrotation Zrotation
			JOINT spine_3
			{
				OFFSET	0	206.5	19.3
				CHANNELS 3  Xrotation Yrotation Zrotation
				JOINT spine_4
				{
					OFFSET	0	110.4	14.6
					CHANNELS 3  Xrotation Yrotation Zrotation
					JOINT neck_1
					{
						OFFSET	0	71.8	-50.3
						CHANNELS 3  Xrotation Yrotation Zrotation
						JOINT neck_2
						{
							OFFSET	0	86.2	-25.8
							CHANNELS 3  Xrotation Yrotation Zrotation
							JOINT head_ee
							{
								OFFSET	0	179.8	-8.7
								CHANNELS 3  Xrotation Yrotation Zrotation
								End Site
								{
									OFFSET	1	0	0
								}
							}
						}
					}
					JOINT left_clavicle
					{
						OFFSET	-43.2	22.4	-70.8
						CHANNELS 3  Xrotation Yrotation Zrotation
						JOINT left_shoulder
						{
							OFFSET	-93.9	-5.79999	48.7
							CHANNELS 3  Xrotation Yrotation Zrotation
							JOINT left_elbow
							{
								OFFSET	-291.4	-30.8	15.2
								CHANNELS 3  Xrotation Yrotation Zrotation
								JOINT left_lowarm_twist
								{
									OFFSET	-110.7	-3.89999	13.6
									CHANNELS 3  Xrotation Yrotation Zrotation
									JOINT left_hand
									{
										OFFSET	-110.7	-3.89999	13.6
										CHANNELS 3  Xrotation Yrotation Zrotation
										JOINT left_ee
										{
											OFFSET	-80.8	-5.10001	12.1
											CHANNELS 3  Xrotation Yrotation Zrotation
											End Site
											{
												OFFSET	1	0	0
											}
										}
									}
								}
							}
						}
					}
					JOINT right_clavicle
					{
						OFFSET	43.2	22.4	-70.8
						CHANNELS 3  Xrotation Yrotation Zrotation
						JOINT right_shoulder
						{
							OFFSET	93.9	-5.79999	48.7
							CHANNELS 3  Xrotation Yrotation Zrotation
							JOINT right_elbow
							{
								OFFSET	291.4	-30.8	15.2
								CHANNELS 3  Xrotation Yrotation Zrotation
								JOINT right_lowarm_twist
								{
									OFFSET	110.7	-3.89999	13.6
									CHANNELS 3  Xrotation Yrotation Zrotation
									JOINT right_hand
									{
										OFFSET	110.7	-3.89999	13.6
										CHANNELS 3  Xrotation Yrotation Zrotation
										JOINT right_ee
										{
											OFFSET	80.8	-5.10001	12.1
											CHANNELS 3  Xrotation Yrotation Zrotation
											End Site
											{
												OFFSET	1	0	0
											}
										}
									}
								}
							}
						}
					}
				}
			}
		}
	}
	JOINT left_hip
	{
		OFFSET	-82.8	-127.5	0.300001
		CHANNELS 3  Xrotation Yrotation Zrotation
		JOINT left_knee
		{
			OFFSET	-28.2	-396.7	2.2
			CHANNELS 3  Xrotation Yrotation Zrotation
			JOINT left_ankle
			{
				OFFSET	-11.7	-411.3	35.4
				CHANNELS 3  Xrotation Yrotation Zrotation
				JOINT left_toes
				{
					OFFSET	0	-60	-88.6
					CHANNELS 3  Xrotation Yrotation Zrotation
					JOINT left_foot_ee
					{
						OFFSET	-22.5	-16.5	-42.2
						CHANNELS 3  Xrotation Yrotation Zrotation
						End Site
						{
							OFFSET	1	0	0
						}
					}
				}
			}
		}
	}
	JOINT right_hip
	{
		OFFSET	82.8	-127.5	0.300001
		CHANNELS 3  Xrotation Yrotation Zrotation
		JOINT right_knee
		{
			OFFSET	28.2	-396.7	2.2
			CHANNELS 3  Xrotation Yrotation Zrotation
			JOINT right_ankle
			{
				OFFSET	11.7	-411.3	35.4
				CHANNELS 3  Xrotation Yrotation Zrotation
				JOINT right_toes
				{
					OFFSET	0	-60	-88.6
					CHANNELS 3  Xrotation Yrotation Zrotation
					JOINT right_foot_ee
					{
						OFFSET	22.5	-16.5	-42.2
						CHANNELS 3  Xrotation Yrotation Zrotation
						End Site
						{
							OFFSET	1	0	0
						}
					}
				}
			}
		}
	}
}
MOTION
Frames: 10
Frame Time: 0.02
2978.16450826 699.115 -1958.43331338 -19.6935899721 12.3503859139 8.66693790982 8.27657 0.158112 -0.740574 8.27685 0.204915 -0.729013 8.2738 0.253531 -0.713564 8.27312 0.137659 -0.744647 -15.3492 8.48055 3.09488 -15.5104 14.4202 5.80203 -0.0 0.0 -0.0 4.23595 14.8052 8.57492 -15.1351 -34.9474 54.4493 1.03281 -27.0948 0.248867 44.1431 -0.582117 -5.47145 2.46882 3.28725 18.0166 -0.0 0.0 -0.0 9.01752 12.7281 -17.6189 -13.5435 -25.1163 -66.5022 0.505453 14.0573 -0.0623186 30.8392 -0.0396544 3.89212 6.02386 1.00122 -44.3153 0.0 0.0 0.0 40.8706 32.0382 -13.4776 -27.3467 0.136514 4.15476 26.7679 -30.7531 -4.43069 -17.2078 0.0 0.0 -0.0 0.0 -0.0 53.9255 19.1429 -13.4498 -77.4294 4.34464 -10.1346 17.0825 -1.88154 2.37354 21.1299 -0.0 -0.0 0.0 0.0 0.0 
2976.15449944 698.614 -1967.93839347 -19.9057607278 10.4484599357 8.33934668434 8.34518 0.261724 -0.521923 8.34528 0.294405 -0.504211 8.34256 0.327101 -0.483641 8.34232 0.246615 -0.529229 -14.2838 9.20641 3.62985 -14.4336 15.3879 6.40373 -0.0 0.0 -0.0 4.22921 13.6515 8.55284 -12.798 -34.4497 51.7242 1.11895 -28.9985 0.289374 45.8017 -0.68491 -5.65714 2.28484 2.02586 16.252 -0.0 0.0 -0.0 9.30443 13.3389 -18.2241 -14.3181 -23.9007 -67.2246 0.434198 12.1389 -0.0461686 29.4324 -0.0835484 3.71779 5.73692 3.20468 -40.565 0.0 0.0 0.0 41.6073 36.0224 -15.5116 -26.7662 0.154282 4.06745 29.189 -31.5448 -4.80002 -15.1509 0.0 0.0 -0.0 0.0 -0.0 56.926 20.7697 -17.0794 -75.0769 4.02789 -9.95637 15.9246 -0.257683 2.23084 20.4149 -0.0 -0.0 0.0 0.0 0.0 
2960.01008408 699.76 -1978.25572407 -19.925642572 10.6177124251 8.07766282985 8.37824 0.348762 -0.155703 8.37819 0.357963 -0.133195 8.37747 0.365918 -0.109462 8.37762 0.344039 -0.165879 -12.9317 9.13707 3.36124 -13.0503 15.2763 5.94088 -0.0 0.0 -0.0 4.45607 11.3565 8.90912 -11.1453 -33.7675 47.995 1.24441 -31.6503 0.352736 47.2513 -0.779131 -5.81696 1.93193 2.50748 14.0077 -0.0 0.0 -0.0 9.70075 11.8907 -19.1403 -15.9473 -21.9082 -67.4297 0.380585 10.6769 -0.0355636 29.567 -0.0795341 3.73451 5.177 5.01726 -34.8816 0.0 0.0 0.0 41.1385 39.6967 -16.5446 -27.3622 0.136028 4.1571 29.2056 -31.299 -4.78645 -14.9435 0.0 0.0 -0.0 0.0 -0.0 57.6849 21.0038 -17.2767 -71.983 3.62295 -9.70252 15.1273 0.912419 2.13232 19.5361 -0.0 -0.0 0.0 0.0 0.0 
2935.6657459 699.332 -1981.61902876 -20.3593595989 10.2993388178 8.23183442748 8.47493 0.385441 -0.20776 8.47487 0.397881 -0.182812 8.47373 0.408738 -0.157044 8.4739 0.378806 -0.219626 -12.1519 9.17449 2.95239 -12.263 15.5235 5.45783 -0.0 0.0 -0.0 4.34128 11.2522 8.71083 -8.20077 -31.9251 47.6656 1.23124 -31.3786 0.345851 50.2476 -0.986591 -6.13957 1.49078 0.836852 10.3447 -0.0 0.0 -0.0 9.29328 12.102 -18.2421 -17.0602 -20.1187 -68.0565 0.355343 9.98349 -0.031037 29.8216 -0.0718356 3.76612 4.78855 5.52257 -31.5078 0.0 0.0 0.0 41.1247 42.9813 -17.1802 -26.6193 0.158638 4.04533 29.4074 -31.5625 -4.82943 -14.1281 0.0 0.0 -0.0 0.0 -0.0 59.4581 22.6072 -18.3729 -71.5347 3.56542 -9.66394 13.4854 1.80735 1.91858 18.6806 -0.0 -0.0 0.0 0.0 0.0 
2849.73223105 697.203 -2006.81317838 -19.9609523462 16.7187185338 10.9450094605 8.23592 0.0992314 -0.425556 8.23602 0.126109 -0.418379 8.23495 0.154261 -0.408838 8.23473 0.0877572 -0.428069 -11.9267 8.01265 2.93584 -11.9971 13.3039 5.07598 -0.0 0.0 -0.0 5.45917 8.32125 10.656 -1.61928 -31.8931 46.0936 1.31199 -33.0191 0.388883 49.4825 -0.93201 -6.05822 1.48098 -3.30537 8.59318 -0.0 0.0 -0.0 9.14154 8.75968 -17.9875 -18.6891 -22.54 -64.5101 0.202943 5.7409 -0.0101757 27.1491 -0.145633 3.43275 3.78396 11.4836 -21.0778 0.0 0.0 0.0 32.4906 43.5507 -13.8589 -23.4981 0.237726 3.57293 35.2232 -30.7716 -5.47517 -12.5856 0.0 0.0 -0.0 0.0 -0.0 73.2487 22.3329 -23.6197 -53.066 1.49954 -7.71867 9.21194 -2.89433 1.31802 15.3248 -0.0 -0.0 0.0 0.0 0.0 
2844.63878076 697.203 -2001.79850327 -20.0527985777 17.5372379002 11.2568651262 8.23592 0.0992314 -0.425556 8.23602 0.126109 -0.418379 8.23495 0.154261 -0.408838 8.23473 0.0877572 -0.428069 -11.9267 8.01265 2.93584 -11.9971 13.3039 5.07598 -0.0 0.0 -0.0 5.45917 8.32125 10.656 -1.61928 -31.8931 46.0936 1.31199 -33.0191 0.388883 49.4825 -0.93201 -6.05822 1.48098 -3.30537 8.59318 -0.0 0.0 -0.0 9.14154 8.75968 -17.9875 -18.6891 -22.54 -64.5101 0.202943 5.7409 -0.0101757 27.1491 -0.145633 3.43275 3.78396 11.4836 -21.0778 0.0 0.0 0.0 32.4906 43.5507 -13.8589 -23.4981 0.237726 3.57293 35.2232 -30.7716 -5.47517 -12.5856 0.0 0.0 -0.0 0.0 -0.0 73.2487 22.3329 -23.6197 -53.066 1.49954 -7.71867 9.21194 -2.89433 1.31802 15.3248 -0.0 -0.0 0.0 0.0 0.0 
2838.36385036 697.203 -1995.40530471 -20.1751478045 18.5623779141 11.6517220042 8.23592 0.0992314 -0.425556 8.23602 0.126109 -0.418379 8.23495 0.154261 -0.408838 8.23473 0.0877572 -0.428069 -11.9267 8.01265 2.93584 -11.9971 13.3039 5.07598 -0.0 0.0 -0.0 5.45917 8.32125 10.656 -1.61928 -31.8931 46.0936 1.31199 -33.0191 0.388883 49.4825 -0.93201 -6.05822 1.48098 -3.30537 8.59318 -0.0 0.0 -0.0 9.14154 8.75968 -17.9875 -18.6891 -22.54 -64.5101 0.202943 5.7409 -0.0101757 27.1491 -0.145633 3.43275 3.78396 11.4836 -21.0778 0.0 0.0 0.0 32.4906 43.5507 -13.8589 -23.4981 0.237726 3.57293 35.2232 -30.7716 -5.47517 -12.5856 0.0 0.0 -0.0 0.0 -0.0 73.2487 22.3329 -23.6197 -53.066 1.49954 -7.71867 9.21194 -2.89433 1.31802 15.3248 -0.0 -0.0 0.0 0.0 0.0 
2819.3389974 694.634 -1992.76356799 -19.9946778094 18.1455086117 11.2707351355 8.10488 0.309753 -0.235588 8.10485 0.324116 -0.2154 8.1037 0.338451 -0.192092 8.10378 0.303867 -0.243133 -11.1349 7.95715 1.66645 -11.2146 13.9529 3.75078 -0.0 0.0 -0.0 5.28116 8.92034 10.3371 -1.35412 -31.8593 44.3829 1.47564 -36.164 0.481824 49.486 -0.932259 -6.0586 1.63455 -5.13412 8.87757 -0.0 0.0 -0.0 9.32748 9.00648 -18.3849 -19.7935 -19.0147 -64.8698 0.198635 5.61983 -0.00974934 26.5725 -0.159509 3.3604 3.77789 11.3619 -21.093 0.0 0.0 0.0 32.3286 48.4417 -14.5656 -23.6519 0.234434 3.59629 34.8643 -32.1682 -5.53494 -14.353 0.0 0.0 -0.0 0.0 -0.0 78.4486 27.4919 -27.9419 -48.6676 1.10812 -7.16597 8.7055 -3.33626 1.24691 15.1181 -0.0 -0.0 0.0 0.0 0.0 
2817.09535621 694.634 -1990.26523207 -20.0399284272 18.5203557128 11.4145980023 8.10488 0.309753 -0.235588 8.10485 0.324116 -0.2154 8.1037 0.338451 -0.192092 8.10378 0.303867 -0.243133 -11.1349 7.95715 1.66645 -11.2146 13.9529 3.75078 -0.0 0.0 -0.0 5.28116 8.92034 10.3371 -1.35412 -31.8593 44.3829 1.47564 -36.164 0.481824 49.486 -0.932259 -6.0586 1.63455 -5.13412 8.87757 -0.0 0.0 -0.0 9.32748 9.00648 -18.3849 -19.7935 -19.0147 -64.8698 0.198635 5.61983 -0.00974934 26.5725 -0.159509 3.3604 3.77789 11.3619 -21.093 0.0 0.0 0.0 32.3286 48.4417 -14.5656 -23.6519 0.234434 3.59629 34.8643 -32.1682 -5.53494 -14.353 0.0 0.0 -0.0 0.0 -0.0 78.4486 27.4919 -27.9419 -48.6676 1.10812 -7.16597 8.7055 -3.33626 1.24691 15.1181 -0.0 -0.0 0.0 0.0 0.0 
2790.24127448 687.904 -2010.07494802 -21.1471588836 19.4966564164 12.8239652042 7.88918 0.36739 -0.169987 7.88912 0.377462 -0.146264 7.88827 0.387253 -0.117924 7.88844 0.363769 -0.177604 -11.3198 7.48726 -0.107234 -11.4136 14.2358 1.93692 -0.0 0.0 -0.0 5.94047 8.70391 11.5178 3.86044 -31.5729 44.8535 1.4816 -36.2741 0.485345 49.4757 -0.931529 -6.0575 1.33771 -7.71417 5.76652 -0.0 0.0 -0.0 9.96374 8.55443 -19.767 -21.7504 -20.4791 -64.3526 0.223727 6.32432 -0.0123601 26.3277 -0.165181 3.32964 3.25042 14.0993 -16.0385 0.0 0.0 0.0 29.675 49.0009 -12.8342 -21.1274 0.280535 3.21169 36.7975 -30.1634 -5.60388 -14.2012 0.0 0.0 -0.0 0.0 -0.0 82.1873 32.0288 -31.3466 -42.2156 0.613705 -6.30562 11.0564 -3.03419 1.5712 15.3902 -0.0 -0.0 0.0 0.0 0.0 
